<?xml version="1.0" encoding="UTF-8" standalone="no"?>
<!DOCTYPE svg PUBLIC "-//W3C//DTD SVG 1.1//EN" "http://www.w3.org/Graphics/SVG/1.1/DTD/svg11.dtd">
<svg width="100%" height="100%" viewBox="0 0 2832 2832" version="1.1" xmlns="http://www.w3.org/2000/svg" xmlns:xlink="http://www.w3.org/1999/xlink" xml:space="preserve" xmlns:serif="http://www.serif.com/" style="fill-rule:evenodd;clip-rule:evenodd;stroke-linejoin:round;stroke-miterlimit:2;">
    <g transform="matrix(1,0,0,1,-12295.2,20087)">
        <g transform="matrix(4.80561,4.80561,-3.86123,3.86123,-76651.3,-78149.6)">
            <path d="M15463.9,-3854.89L15463.9,-4143.6C15463.9,-4187.66 15478.4,-4227.52 15501.9,-4256.08C15524.7,-4283.78 15555.9,-4300.85 15590.2,-4300.85C15624.5,-4300.85 15655.7,-4283.78 15678.5,-4256.08C15702,-4227.52 15716.6,-4187.66 15716.6,-4143.6L15716.6,-3854.89C15716.6,-3768.1 15659.9,-3697.63 15590.2,-3697.63C15520.5,-3697.63 15463.9,-3768.1 15463.9,-3854.89ZM15497.9,-4011.92L15497.9,-3854.89C15497.9,-3791.49 15539.3,-3740.02 15590.2,-3740.02C15641.1,-3740.02 15682.5,-3791.49 15682.5,-3854.89L15682.5,-4011.92C15654.5,-4003.79 15623.2,-3999.24 15590.2,-3999.24C15557.2,-3999.24 15525.9,-4003.79 15497.9,-4011.92Z" style="fill:white;"/>
        </g>
    </g>
</svg>
