<?xml version="1.0" encoding="UTF-8" standalone="no"?>
<!DOCTYPE svg PUBLIC "-//W3C//DTD SVG 1.1//EN" "http://www.w3.org/Graphics/SVG/1.1/DTD/svg11.dtd">
<svg width="100%" height="100%" viewBox="0 0 2987 2987" version="1.1" xmlns="http://www.w3.org/2000/svg" xmlns:xlink="http://www.w3.org/1999/xlink" xml:space="preserve" xmlns:serif="http://www.serif.com/" style="fill-rule:evenodd;clip-rule:evenodd;stroke-linejoin:round;stroke-miterlimit:2;">
    <g transform="matrix(1,0,0,1,-8504.19,20087)">
        <g transform="matrix(138.889,0,0,138.889,8330.58,-20260.6)">
            <path d="M12.057,1.25C14.366,1.25 16.175,1.25 17.586,1.44C19.031,1.634 20.171,2.039 21.066,2.934C21.961,3.829 22.366,4.969 22.56,6.414C22.75,7.825 22.75,9.634 22.75,11.943L22.75,12.057C22.75,14.366 22.75,16.175 22.56,17.586C22.366,19.031 21.961,20.171 21.066,21.066C20.171,21.961 19.031,22.366 17.586,22.56C16.175,22.75 14.366,22.75 12.057,22.75L11.943,22.75C9.634,22.75 7.825,22.75 6.414,22.56C4.969,22.366 3.829,21.961 2.934,21.066C2.039,20.171 1.634,19.031 1.44,17.586C1.25,16.175 1.25,14.366 1.25,12.057L1.25,11.943C1.25,9.634 1.25,7.825 1.44,6.414C1.634,4.969 2.039,3.829 2.934,2.934C3.829,2.039 4.969,1.634 6.414,1.44C7.825,1.25 9.634,1.25 11.943,1.25L12.057,1.25ZM3.995,3.995C3.425,4.564 3.098,5.335 2.926,6.614C2.804,7.526 2.766,8.64 2.755,10.045L2.981,10.013C8.028,9.288 12.546,12.238 14.255,16.563C15.581,14.334 18.183,12.856 21.027,13.25L21.249,13.28C21.25,12.876 21.25,12.45 21.25,12C21.25,9.622 21.248,7.914 21.074,6.614C20.902,5.335 20.575,4.564 20.005,3.995C19.436,3.425 18.665,3.098 17.386,2.926C16.086,2.752 14.378,2.75 12,2.75C9.622,2.75 7.914,2.752 6.614,2.926C5.335,3.098 4.564,3.425 3.995,3.995ZM18,8C18,9.105 17.105,10 16,10C14.895,10 14,9.105 14,8C14,6.895 14.895,6 16,6C17.105,6 18,6.895 18,8Z" style="fill:white;"/>
        </g>
    </g>
</svg>
