<?xml version="1.0" encoding="UTF-8" standalone="no"?>
<!DOCTYPE svg PUBLIC "-//W3C//DTD SVG 1.1//EN" "http://www.w3.org/Graphics/SVG/1.1/DTD/svg11.dtd">
<svg width="100%" height="100%" viewBox="0 0 659 677" version="1.1" xmlns="http://www.w3.org/2000/svg" xmlns:xlink="http://www.w3.org/1999/xlink" xml:space="preserve" xmlns:serif="http://www.serif.com/" style="fill-rule:evenodd;clip-rule:evenodd;stroke-linejoin:round;stroke-miterlimit:2;">
    <g transform="matrix(1,0,0,1,-14156.6,5106.06)">
        <g transform="matrix(1.20026,0,0,1.20026,-274.664,-1270.64)">
            <path d="M12057.5,-2990.76C12018.8,-3018.62 12041.1,-3098.17 12117.4,-3115.85C12178,-3159.56 12260.2,-3166.08 12322.3,-3135.7C12369.2,-3189.76 12489.5,-3248.76 12533.7,-3108.72C12554,-3044.38 12443.8,-2966.13 12486.2,-2922.89C12505.9,-2902.9 12542.4,-2943.13 12551.8,-2979.48C12609.9,-2952.05 12537.4,-2781.41 12426,-2875.86C12351.6,-2938.89 12460.5,-3044.79 12417.1,-3087.1C12401.6,-3102.32 12382,-3101.32 12363.6,-3097.04C12464.5,-2947.64 12286.9,-2888.46 12308.6,-2777.91C12312.3,-2759.09 12319,-2740.56 12329.2,-2724.16C12337.9,-2710.04 12363.2,-2698.06 12363.3,-2687.73C12363.4,-2682.07 12333.6,-2687.86 12318.1,-2680.39C12271.9,-2658.19 12178.6,-2613.29 12162.5,-2639.62C12155.5,-2651.07 12195.1,-2678.44 12207.1,-2719.68C12212.7,-2739.09 12218.4,-2769.94 12197.8,-2786.91C12150.5,-2763.76 12123.1,-2756.39 12095.8,-2763.92C12056.4,-2774.74 12023.8,-2831.73 12023.4,-2881.52C12023.4,-2889.22 12031.2,-2919.6 12048.7,-2926.62L12056,-2944.11C12046.6,-2946.8 12041.3,-2954.54 12037.6,-2964.14C12043.6,-2958.04 12050.1,-2954.49 12058,-2958.01C12060,-2970.3 12054.4,-2980.43 12057.5,-2990.76ZM12112.1,-2772.31C12119.8,-2772.08 12129.1,-2773.26 12139.2,-2775.8C12162.3,-2781.59 12190,-2794.45 12215.5,-2813.76C12275.5,-2847.39 12304.3,-2885.87 12310.6,-2914.52C12315.6,-2937.17 12307.5,-2954.47 12290.4,-2961.84C12286.5,-2963.56 12281.7,-2963.95 12276.4,-2962.97C12270,-2961.8 12262.5,-2958.58 12254.3,-2953.97C12236.8,-2944.12 12215.8,-2927.82 12195.9,-2914.79C12189.5,-2910.64 12183.3,-2906.81 12177.4,-2903.7C12175.7,-2905.75 12173.8,-2907.57 12171.5,-2909.11C12170.2,-2910.05 12168.5,-2910.48 12166.5,-2910.53C12163.7,-2910.62 12160.3,-2909.93 12156.5,-2908.94C12147,-2906.53 12134.8,-2902.36 12121.5,-2904.05C12102.6,-2906.44 12085.3,-2912.3 12071.9,-2914.96C12062.7,-2916.77 12055.4,-2917.08 12050.5,-2913.99C12048.5,-2912.74 12046.7,-2911.32 12045.1,-2909.73C12044,-2908.13 12042.9,-2906.38 12041.9,-2904.61C12037.1,-2895.66 12034.5,-2885.36 12034.5,-2881.61C12034.7,-2865.1 12038.6,-2847.74 12045.4,-2831.81C12057.2,-2805.83 12077.2,-2782.26 12098.7,-2774.6C12099.1,-2774.47 12099.5,-2774.34 12099.9,-2774.21C12103.4,-2773.08 12107.5,-2772.45 12112.1,-2772.31ZM12210.4,-2826.15C12195.1,-2844.66 12191.2,-2864.14 12187.1,-2880.08C12186,-2884.34 12184.9,-2888.35 12183.6,-2892.03C12204.1,-2902.91 12227.6,-2921.14 12248.2,-2934.64C12258.3,-2941.26 12267.7,-2946.68 12275.5,-2949.06C12279.3,-2950.2 12282.5,-2950.74 12285.2,-2949.61C12296.6,-2944.66 12301,-2932.6 12297.6,-2917.39C12291.8,-2891.18 12264.7,-2856.94 12210.4,-2826.15Z" style="fill:white;"/>
        </g>
    </g>
</svg>
